<mxfile host="app.diagrams.net" modified="2023-07-02T07:28:12.997Z" agent="Mozilla/5.0 (Windows NT 10.0; Win64; x64) AppleWebKit/537.36 (KHTML, like Gecko) Chrome/109.0.0.0 Safari/537.36" version="21.5.2" etag="SvrVBtdaPz_WUzR4Yxiq" type="github">
  <diagram name="Page-1" id="JsLxOaPpBZ_JQsEQJrrz">
    <mxGraphModel>
      <root>
        <mxCell id="0" />
        <mxCell id="1" parent="0" />
      </root>
    </mxGraphModel>
  </diagram>
</mxfile>
